<?xml version="1.0" encoding="utf-8"?>
<!-- Generator: Adobe Illustrator 22.1.0, SVG Export Plug-In . SVG Version: 6.00 Build 0)  -->
<svg version="1.1" id="Camada_1" xmlns="http://www.w3.org/2000/svg" xmlns:xlink="http://www.w3.org/1999/xlink" x="0px" y="0px"
	 viewBox="0 0 240 60" style="enable-background:new 0 0 240 60;" xml:space="preserve">
<style type="text/css">
	.st0{opacity:0.3;fill:#333333;}
	.st1{fill:none;stroke:#E6E6E6;stroke-width:8;stroke-linecap:round;stroke-linejoin:round;}
</style>
<circle class="st0" cx="30" cy="30" r="25"/>
<circle class="st0" cx="90" cy="30" r="25"/>
<circle class="st0" cx="150" cy="30" r="25"/>
<circle class="st0" cx="210" cy="30" r="25"/>
<line class="st1" x1="72.3" y1="12.3" x2="90" y2="30"/>
<line class="st1" x1="107.7" y1="47.7" x2="90" y2="30"/>
<line class="st1" x1="115" y1="55" x2="107.7" y2="47.7"/>
<line class="st1" x1="72.3" y1="12.3" x2="65" y2="5"/>
<line class="st1" x1="107.7" y1="12.3" x2="90" y2="30"/>
<line class="st1" x1="65" y1="55" x2="72.3" y2="47.7"/>
<line class="st1" x1="90" y1="30" x2="72.3" y2="47.7"/>
<line class="st1" x1="115" y1="5" x2="107.7" y2="12.3"/>
<line class="st1" x1="132.3" y1="12.3" x2="150" y2="30"/>
<line class="st1" x1="132.3" y1="12.3" x2="125" y2="5"/>
<line class="st1" x1="167.7" y1="12.3" x2="150" y2="30"/>
<line class="st1" x1="175" y1="5" x2="167.7" y2="12.3"/>
<line class="st1" x1="150" y1="30" x2="132.3" y2="47.7"/>
<line class="st1" x1="125" y1="55" x2="132.3" y2="47.7"/>
<path class="st1" d="M192.3,47.7c4.5,4.5,10.8,7.3,17.7,7.3c6.9,0,13.2-2.8,17.7-7.3"/>
<path class="st1" d="M227.7,12.3C223.2,7.8,216.9,5,210,5c-6.9,0-13.2,2.8-17.7,7.3"/>
<line class="st1" x1="192.3" y1="12.3" x2="210" y2="30"/>
<line class="st1" x1="227.7" y1="47.7" x2="210" y2="30"/>
<line class="st1" x1="192.3" y1="12.3" x2="185" y2="5"/>
<line class="st1" x1="235" y1="55" x2="227.7" y2="47.7"/>
<path class="st1" d="M47.7,47.7C52.2,43.2,55,36.9,55,30c0-6.9-2.8-13.2-7.3-17.7"/>
<path class="st1" d="M12.3,47.7C16.8,52.2,23.1,55,30,55c6.9,0,13.2-2.8,17.7-7.3"/>
<path class="st1" d="M12.3,12.3C7.8,16.8,5,23.1,5,30c0,6.9,2.8,13.2,7.3,17.7"/>
<path class="st1" d="M47.7,12.3C43.2,7.8,36.9,5,30,5c-6.9,0-13.2,2.8-17.7,7.3"/>
</svg>
