<?xml version="1.0" encoding="utf-8"?>
<!-- Generator: Adobe Illustrator 22.1.0, SVG Export Plug-In . SVG Version: 6.00 Build 0)  -->
<svg version="1.1" id="Camada_1" xmlns="http://www.w3.org/2000/svg" xmlns:xlink="http://www.w3.org/1999/xlink" x="0px" y="0px"
	 viewBox="0 0 240 60" style="enable-background:new 0 0 240 60;" xml:space="preserve">
<style type="text/css">
	.st0{opacity:0.3;}
	.st1{fill:none;stroke:#211915;stroke-width:2;stroke-linecap:round;stroke-linejoin:round;}
	.st2{fill:none;stroke:#E6E6E6;stroke-width:8;stroke-linecap:round;stroke-linejoin:round;}
</style>
<g class="st0">
	<g>
		<path class="st1" d="M21.1,53.2c0,0-7.6-4.6-7.6-4.7l17.5,6.8c0,0-23.5-13.7-23-14.4C8.6,40,37,54.1,37,54.1L6.3,34.9
			c0.6-1,33.4,17.4,33.5,17.2L6,31.1l36.7,19.6c0.5-0.9-37.9-22.3-37.3-23.3c0,0,41.3,20.8,41.3,20.8c0.4-0.7-41.6-24.9-41.1-25.7
			c0.7-1.2,44,23.8,44,23.8S7.8,21,8.1,20.5c0.2-0.4,42.7,24,43,23.6C52,42.6,8,17.1,8,17.1l43.7,23.1c0.6-1-42.1-24.7-41.4-25.9
			c0.5-0.8,43.6,24,44,23.4L13.4,12.2c0.8-1.3,40.6,20.7,40.6,20.7l-38.5-24l38.8,20.7c0,0-34.9-20.6-34.4-21.5
			c0,0,33.1,18.7,33.7,17.7c0,0-31-19.3-30.9-19.3c0,0,29.7,15,30.1,14.3c0.3-0.5-24.2-15.1-24.2-15.1c0.3-0.4,20.3,8,20.3,8L36.6,6
			"/>
	</g>
</g>
<g class="st0">
	<g>
		<path class="st1" d="M81.3,53.3c0,0-8.7-5.5-8.7-5.5c0.2-0.3,16.6,7.8,16.9,7.3c0,0-20.9-12.1-20.5-12.8
			c0.5-0.7,25.9,12.4,26.3,11.7c0.6-0.9-29.5-18.4-29.5-18.4c0.6-0.9,35.5,17.3,35.5,17.3c0.6-1-35.5-22.2-35.5-22.2
			c0.6-0.9,39.3,19.9,39.3,19.9c0.8-1.4-39.7-24-39.3-24.6l40.8,21.1c0.8-1.3-40.6-25.4-40.6-25.4c0.5-0.7,43.4,23.5,43.4,23.5
			L67,19c0.4-0.6,43.5,23,43.5,23L69.3,16.3L112,39.6c0.3-0.4-41.2-25.7-41.2-25.7c0.8-1.3,43.2,24.2,43.4,23.8L73.7,12.3
			c0.1-0.2,39.8,22.1,40.5,20.9L76.8,9.8c0,0,37.1,19.5,37.7,18.5C115,27.6,80,7.5,80.3,7c0.2-0.3,33.7,18.5,34.4,17.4
			c0.2-0.3-30.6-17.9-30.1-18.8c0,0,27.1,14.6,27.6,13.8c0,0-23.8-14.2-23.5-14.7l18.7,7.4c0,0-8.2-5.1-8.2-5.1"/>
	</g>
</g>
<g class="st0">
	<g>
		<path class="st1" d="M140.3,52.7c0,0-7.1-4.4-7.1-4.4s17.4,6.5,17.7,6c0,0-24.8-15.2-24.6-15.4c0,0,30.8,14.5,30.9,14.4
			c0,0-32.4-18.8-31.8-19.9c0.3-0.5,35.9,19.2,35.9,19.2s-36.1-21.2-35.5-22.2l37.6,20.4c0,0-37.3-23.2-37.3-23.3
			c0,0,39.1,21.5,39.3,21.3c0.6-1-40.1-24.4-39.8-24.9c0.1-0.2,42,23.2,42.5,22.4c0,0-41-24.5-40.5-25.3c0.5-0.9,42,23.6,42.6,22.5
			c0.3-0.5-40.8-25.4-40.8-25.5l43.3,22.1L130.9,14l42.6,22c0.3-0.4-40.2-25.1-40.2-25.1l40.4,21c0,0-37.6-21.8-36.9-23
			c0.3-0.6,37.6,20.1,37.6,20.1L139.6,7l34.4,17.9c0.3-0.4-31-18-30.4-19c0.1-0.2,28.5,13.4,28.5,13.4c0.3-0.5-22.6-13-22.1-13.8
			c0.2-0.3,17.4,7.1,17.7,6.7c0.1-0.2-8.8-5.5-8.8-5.5"/>
	</g>
</g>
<g class="st0">
	<g>
		<path class="st1" d="M201.8,53.7l-8.3-5.2c0.1-0.2,17.4,6.9,17.6,6.6l-24-15l29.5,13.8l-31.2-19.5l35.4,17.8
			c0.8-1.2-36.7-22.1-36.3-22.7l38.9,21c0.6-0.9-38.6-23.1-38.2-23.8l41.4,22c0,0-40.2-25-40.2-25.1l43.3,22.2
			c0.3-0.4-42.8-25.3-42.2-26.3l43.6,22.9c0.9-1.4-41.9-26.2-41.9-26.2s42.5,23.1,43.1,22.2c0,0-41.5-25.2-41.2-25.7
			c0.8-1.3,42.1,22.6,42.1,22.6l-38.9-24.3l41,20.6c0,0-37.6-23-37.4-23.4l37,18.6c0,0-32.7-19.8-32.4-20.2c0,0,30.5,15.9,30.9,15.2
			c0.4-0.6-27.2-16.1-26.8-16.7c0,0,24.3,12.2,24.4,11.9c0.1-0.2-19.2-12-19.2-12"/>
	</g>
</g>
<line class="st2" x1="72.3" y1="12.3" x2="90" y2="30"/>
<line class="st2" x1="107.7" y1="47.7" x2="90" y2="30"/>
<line class="st2" x1="115" y1="55" x2="107.7" y2="47.7"/>
<line class="st2" x1="72.3" y1="12.3" x2="65" y2="5"/>
<line class="st2" x1="107.7" y1="12.3" x2="90" y2="30"/>
<line class="st2" x1="65" y1="55" x2="72.3" y2="47.7"/>
<line class="st2" x1="90" y1="30" x2="72.3" y2="47.7"/>
<line class="st2" x1="115" y1="5" x2="107.7" y2="12.3"/>
<line class="st2" x1="132.3" y1="12.3" x2="150" y2="30"/>
<line class="st2" x1="132.3" y1="12.3" x2="125" y2="5"/>
<line class="st2" x1="167.7" y1="12.3" x2="150" y2="30"/>
<line class="st2" x1="175" y1="5" x2="167.7" y2="12.3"/>
<line class="st2" x1="150" y1="30" x2="132.3" y2="47.7"/>
<line class="st2" x1="125" y1="55" x2="132.3" y2="47.7"/>
<path class="st2" d="M192.3,47.7c4.5,4.5,10.8,7.3,17.7,7.3c6.9,0,13.2-2.8,17.7-7.3"/>
<path class="st2" d="M227.7,12.3C223.2,7.8,216.9,5,210,5c-6.9,0-13.2,2.8-17.7,7.3"/>
<line class="st2" x1="192.3" y1="12.3" x2="210" y2="30"/>
<line class="st2" x1="227.7" y1="47.7" x2="210" y2="30"/>
<line class="st2" x1="192.3" y1="12.3" x2="185" y2="5"/>
<line class="st2" x1="235" y1="55" x2="227.7" y2="47.7"/>
<path class="st2" d="M47.7,47.7C52.2,43.2,55,36.9,55,30c0-6.9-2.8-13.2-7.3-17.7"/>
<path class="st2" d="M12.3,47.7C16.8,52.2,23.1,55,30,55c6.9,0,13.2-2.8,17.7-7.3"/>
<path class="st2" d="M12.3,12.3C7.8,16.8,5,23.1,5,30c0,6.9,2.8,13.2,7.3,17.7"/>
<path class="st2" d="M47.7,12.3C43.2,7.8,36.9,5,30,5c-6.9,0-13.2,2.8-17.7,7.3"/>
</svg>
